<?xml version="1.0" standalone="no"?>
<!DOCTYPE svg PUBLIC "-//W3C//DTD SVG 20010904//EN"
 "http://www.w3.org/TR/2001/REC-SVG-20010904/DTD/svg10.dtd">
<svg version="1.0" xmlns="http://www.w3.org/2000/svg"
 width="412.000000pt" height="412.000000pt" viewBox="0 0 412.000000 412.000000"
 preserveAspectRatio="xMidYMid meet">
<metadata>
Created by potrace 1.14, written by Peter Selinger 2001-2017
</metadata>
<g transform="translate(0.000000,412.000000) scale(0.100000,-0.100000)"
fill="#000000" stroke="none">
<path d="M1991 4104 c-19 -8 -53 -28 -75 -45 -59 -44 -298 -218 -321 -235 -19
-13 -92 -67 -305 -223 -47 -34 -94 -69 -105 -77 -11 -8 -45 -32 -75 -54 -30
-23 -66 -49 -79 -58 -13 -9 -44 -33 -70 -52 -25 -19 -56 -42 -68 -50 -50 -34
-421 -306 -460 -337 -47 -39 -72 -84 -78 -145 -3 -23 -7 -65 -10 -93 -3 -27
-7 -66 -10 -85 -3 -19 -7 -60 -10 -90 -2 -30 -7 -73 -10 -95 -9 -72 -14 -119
-20 -190 -4 -38 -8 -81 -10 -95 -2 -14 -7 -52 -10 -85 -3 -33 -8 -76 -10 -95
-3 -19 -8 -62 -11 -95 -3 -33 -7 -73 -10 -90 -2 -16 -6 -59 -9 -95 -4 -36 -8
-76 -10 -90 -2 -14 -7 -50 -10 -80 -3 -30 -8 -77 -11 -105 -2 -27 -7 -68 -9
-90 -3 -22 -7 -61 -10 -87 -3 -27 -7 -69 -10 -95 -30 -266 -28 -289 35 -354
26 -27 40 -34 245 -124 33 -14 72 -33 87 -41 15 -8 29 -14 30 -14 3 1 76 -30
148 -62 41 -19 89 -39 100 -43 18 -6 111 -50 143 -66 20 -11 37 -18 37 -15 0
3 32 -11 72 -31 40 -19 77 -36 83 -37 5 -2 28 -11 50 -21 22 -10 65 -29 95
-42 30 -14 66 -30 80 -38 14 -7 28 -14 32 -15 9 -1 82 -32 148 -62 71 -32 95
-41 103 -40 4 1 7 -3 7 -8 0 -5 3 -9 8 -8 4 1 21 -4 37 -11 17 -7 30 -12 30
-11 0 2 23 -10 50 -26 28 -15 51 -27 52 -26 2 1 20 -6 40 -15 21 -9 40 -17 43
-18 3 0 22 -9 43 -19 22 -11 60 -19 85 -19 47 0 105 25 1492 638 96 43 209 92
251 110 94 41 126 67 151 125 16 36 18 57 13 105 -4 33 -8 80 -11 105 -2 25
-13 126 -24 225 -11 99 -23 203 -25 230 -3 28 -7 66 -10 85 -2 19 -7 62 -10
95 -3 33 -8 78 -10 100 -3 22 -7 63 -10 90 -6 54 -9 80 -24 220 -6 50 -13 115
-16 145 -3 30 -8 71 -10 90 -5 43 -13 116 -20 195 -3 33 -8 71 -10 85 -2 14
-7 54 -10 90 -17 179 -27 196 -165 290 -12 8 -34 25 -48 37 -15 13 -30 23 -34
23 -4 0 -13 6 -20 13 -13 12 -23 20 -218 162 -63 46 -120 89 -127 94 -7 6 -15
11 -18 11 -6 0 -7 1 -65 50 -19 16 -38 30 -41 30 -3 0 -19 11 -35 25 -16 14
-32 25 -35 25 -5 0 -22 13 -66 50 -7 5 -17 10 -23 10 -5 0 -10 3 -10 8 0 4
-17 18 -38 32 -20 14 -42 29 -48 35 -7 5 -24 19 -40 30 -15 11 -47 35 -71 53
-24 17 -47 32 -52 32 -5 0 -11 7 -15 15 -3 8 -12 15 -21 15 -8 0 -15 4 -15 8
0 4 -18 19 -40 32 -22 14 -40 28 -40 33 0 4 -7 7 -15 7 -8 0 -15 5 -15 10 0 6
-8 14 -17 17 -10 4 -23 12 -29 17 -6 6 -22 18 -34 26 -12 8 -31 23 -42 33 -12
9 -24 17 -28 17 -3 0 -15 8 -26 18 -10 10 -35 28 -54 42 -19 13 -37 27 -40 31
-3 3 -21 14 -40 24 -45 24 -115 28 -159 9z"/>
</g>
</svg>
