<?xml version="1.0" standalone="no"?>
<!DOCTYPE svg PUBLIC "-//W3C//DTD SVG 20010904//EN"
 "http://www.w3.org/TR/2001/REC-SVG-20010904/DTD/svg10.dtd">
<svg version="1.0" xmlns="http://www.w3.org/2000/svg"
 width="870.000000pt" height="870.000000pt" viewBox="0 0 870.000000 870.000000"
 preserveAspectRatio="xMidYMid meet">
<metadata>
Created by potrace 1.14, written by Peter Selinger 2001-2017
</metadata>
<g transform="translate(0.000000,870.000000) scale(0.100000,-0.100000)"
fill="#000000" stroke="none">
<path d="M81 7933 c-44 -26 -80 -84 -81 -130 0 -31 12 -29 38 7 13 18 37 33
61 40 51 13 66 7 341 -133 582 -298 788 -396 995 -475 101 -38 399 -124 530
-152 55 -12 105 -23 110 -24 6 -2 33 -7 60 -11 28 -5 52 -9 55 -10 3 -1 19 -4
35 -8 17 -3 46 -9 65 -11 19 -3 46 -8 60 -11 14 -3 45 -7 70 -10 44 -5 74 -10
135 -20 31 -5 40 -7 163 -25 40 -6 83 -15 95 -22 12 -6 29 -14 37 -18 10 -4
33 -80 68 -226 30 -120 59 -241 67 -269 7 -27 36 -144 65 -260 28 -115 55
-226 60 -245 5 -19 8 -35 7 -36 -20 -21 -493 -20 -622 1 -16 3 -52 7 -80 10
-27 2 -61 7 -75 10 -14 3 -47 7 -75 11 -27 3 -52 7 -56 9 -3 3 -24 7 -45 10
-21 2 -84 16 -139 30 -55 15 -109 28 -121 31 -25 5 -187 55 -259 79 -127 44
-203 76 -395 167 -384 184 -490 225 -590 233 -76 6 -125 -30 -166 -123 -33
-73 -32 -86 6 -64 16 9 30 20 30 25 0 4 5 7 11 7 7 0 17 7 24 17 21 29 69 19
255 -50 36 -13 90 -35 120 -49 89 -41 441 -179 457 -179 5 -1 13 -4 18 -8 9
-8 201 -70 235 -76 8 -2 15 -4 15 -5 0 -1 7 -3 15 -6 153 -40 361 -94 380 -98
14 -2 50 -10 80 -15 30 -6 66 -14 80 -16 14 -3 41 -8 60 -10 19 -3 44 -6 55
-9 60 -12 344 -24 631 -25 l180 -1 28 -92 c40 -136 138 -436 185 -567 23 -62
41 -115 41 -116 0 -3 -214 -76 -227 -77 -5 -1 -46 -12 -93 -25 -47 -13 -86
-23 -88 -22 -2 1 -85 -12 -172 -27 -86 -14 -181 -19 -380 -19 -198 0 -277 4
-370 19 -35 6 -122 19 -140 22 -17 2 -204 43 -235 50 -11 3 -36 8 -55 10 -19
3 -51 9 -70 14 -19 5 -50 12 -69 15 -19 3 -37 7 -40 9 -18 12 -115 16 -149 6
-52 -14 -134 -93 -175 -169 -17 -33 -35 -124 -20 -106 16 21 89 73 129 93 34
18 107 34 149 35 20 0 137 -14 183 -22 26 -5 54 -9 62 -9 8 0 29 -3 45 -6 52
-10 88 -16 140 -21 28 -4 61 -8 75 -10 152 -26 718 -27 900 -1 95 14 126 20
215 43 55 13 108 26 118 28 37 8 214 58 255 73 23 8 44 13 46 11 2 -2 20 -44
40 -94 21 -49 44 -106 53 -125 8 -19 23 -53 33 -75 37 -82 160 -332 187 -379
l28 -48 -25 -19 c-14 -10 -29 -22 -35 -27 -58 -44 -306 -182 -329 -182 -8 0
-16 -4 -18 -8 -3 -7 -160 -70 -191 -76 -7 -2 -19 -6 -27 -9 -65 -25 -259 -66
-344 -72 -89 -7 -166 -14 -210 -20 -53 -7 -147 -13 -242 -16 -92 -2 -134 -14
-134 -38 0 -14 22 -61 55 -113 12 -19 39 -28 40 -13 0 6 8 24 18 42 16 31 30
36 120 48 12 1 41 5 65 9 87 13 128 18 152 21 60 8 121 17 200 30 47 8 96 16
110 17 14 2 31 7 38 11 6 5 12 6 12 3 0 -9 287 66 315 82 6 4 15 7 20 8 44 8
275 103 387 160 82 41 95 42 88 9 -1 -5 -3 -43 -6 -85 -2 -41 -9 -109 -15
-150 -26 -186 -43 -259 -109 -480 -17 -58 -38 -125 -45 -150 -7 -25 -18 -60
-24 -78 -5 -18 -11 -36 -12 -40 -1 -4 -3 -11 -4 -17 -2 -5 -9 -30 -16 -55 -7
-25 -13 -50 -15 -57 -1 -6 -16 -63 -34 -125 -17 -62 -32 -121 -33 -130 -1 -10
-4 -18 -7 -18 -3 0 -6 -8 -6 -17 -1 -20 0 -16 -44 -193 -17 -69 -34 -136 -36
-150 -3 -14 -11 -50 -19 -80 -19 -76 -79 -364 -101 -490 -3 -14 -7 -36 -10
-50 -2 -14 -9 -54 -14 -90 -5 -36 -12 -74 -14 -85 -4 -22 -27 -194 -32 -240
-4 -39 -13 -185 -19 -300 -2 -49 -7 -123 -11 -164 -7 -71 -6 -73 14 -67 11 4
30 9 42 11 12 2 30 7 40 10 10 3 28 8 40 10 21 4 132 57 127 61 -1 1 -23 5
-50 8 -60 8 -97 25 -98 45 -11 128 29 406 90 636 12 44 23 87 25 95 4 16 55
193 125 435 23 77 41 141 41 142 0 1 42 11 93 23 131 31 129 31 162 36 17 3
53 9 80 14 56 10 106 16 210 26 123 12 450 5 525 -11 14 -3 39 -7 55 -10 105
-15 348 -81 360 -97 1 -2 7 -23 14 -48 13 -52 15 -56 36 -130 9 -30 20 -68 25
-85 5 -16 27 -93 50 -170 37 -129 85 -307 93 -351 2 -11 7 -30 10 -44 6 -27
24 -124 32 -180 3 -19 8 -75 11 -125 2 -49 6 -98 9 -108 2 -10 -1 -31 -7 -47
-10 -29 -16 -32 -98 -45 -19 -3 -36 -8 -38 -9 -10 -10 133 -73 150 -66 2 0 25
-6 52 -14 51 -16 68 -14 61 7 -6 21 -16 109 -20 197 -15 280 -17 308 -30 403
-3 20 -8 56 -11 80 -3 23 -12 80 -19 127 -8 47 -17 103 -20 125 -4 22 -8 47
-10 55 -3 8 -7 32 -11 54 -3 21 -8 48 -11 60 -2 11 -6 30 -8 41 -2 11 -18 85
-35 165 -17 80 -33 153 -35 163 -2 10 -7 28 -11 39 -3 11 -7 30 -9 41 -2 12
-6 32 -9 44 -3 13 -8 31 -10 40 -11 46 -38 160 -41 173 -17 64 -22 90 -16 90
3 0 2 4 -4 8 -5 4 -20 50 -33 102 -13 52 -32 124 -42 160 -11 36 -45 151 -76
255 -63 215 -104 361 -110 390 -2 11 -7 34 -9 50 -3 17 -8 39 -12 49 -3 11 -7
34 -9 50 -1 17 -5 45 -8 61 -8 52 -16 128 -20 198 -3 38 -6 71 -9 73 -2 3 -2
15 0 28 5 23 6 23 98 -26 83 -43 264 -123 305 -133 8 -3 74 -24 145 -49 140
-47 194 -64 238 -70 15 -3 35 -7 45 -10 9 -3 33 -7 52 -10 19 -3 46 -8 60 -11
14 -3 41 -7 60 -10 19 -3 46 -7 60 -10 14 -3 43 -7 65 -10 22 -3 51 -7 65 -9
14 -3 50 -7 81 -11 31 -3 66 -7 76 -9 11 -3 43 -7 70 -11 91 -11 106 -18 128
-63 11 -22 23 -41 27 -42 11 0 78 116 78 136 0 31 -29 40 -135 43 -128 4 -180
7 -230 15 -22 3 -67 8 -100 11 -236 22 -229 21 -366 55 -227 58 -432 151 -651
297 l-97 65 24 39 c14 21 25 43 25 48 0 5 3 11 8 13 14 6 162 329 266 582 13
30 20 37 33 31 10 -4 32 -11 48 -16 17 -4 104 -28 195 -54 91 -25 174 -47 185
-49 11 -2 54 -11 95 -19 41 -9 88 -18 105 -21 70 -13 236 -20 465 -20 254 -1
374 6 530 29 25 4 61 9 80 11 80 10 105 13 105 14 0 2 36 9 85 16 25 3 56 8
70 10 44 7 127 6 161 -1 57 -12 152 -66 190 -107 35 -38 29 13 -12 97 -23 46
-91 124 -131 150 -37 23 -104 26 -185 9 -38 -8 -79 -17 -93 -19 -14 -2 -25 -4
-25 -5 0 -1 -11 -3 -25 -6 -14 -2 -56 -11 -95 -19 -38 -8 -80 -17 -93 -20 -13
-2 -31 -6 -40 -9 -9 -3 -33 -8 -52 -11 -19 -3 -57 -10 -85 -15 -154 -29 -240
-35 -475 -35 -118 0 -242 3 -275 7 -132 16 -163 21 -235 35 -90 17 -99 19
-175 38 -85 22 -82 21 -170 50 -99 34 -137 53 -130 65 20 33 160 450 225 668
11 40 27 75 33 77 7 2 154 6 327 9 348 6 465 13 558 31 11 2 37 6 58 9 108 17
440 98 592 145 34 10 62 17 62 14 0 -3 6 -1 13 4 6 6 46 21 87 33 41 13 77 24
80 25 3 1 14 5 25 10 11 4 72 28 135 53 63 24 121 49 128 54 6 6 12 8 12 4 0
-4 13 0 30 9 16 8 32 16 35 16 2 0 49 20 103 43 55 24 117 49 138 55 22 7 48
16 59 21 105 44 128 43 195 -8 66 -50 74 -40 34 48 -45 100 -108 131 -221 108
-61 -13 -266 -99 -458 -192 -82 -40 -161 -77 -175 -81 -14 -4 -29 -11 -35 -15
-20 -16 -188 -81 -322 -126 -209 -68 -427 -121 -613 -148 -100 -14 -138 -18
-295 -32 -145 -12 -500 -4 -527 12 -5 3 -6 13 -3 23 4 9 14 41 21 71 8 30 16
62 18 70 13 49 98 400 116 480 66 285 92 375 112 391 26 20 83 33 258 59 218
31 247 36 290 45 14 3 39 7 55 9 17 2 53 9 80 16 28 6 64 13 80 15 50 6 314
70 410 99 50 15 97 29 105 31 48 11 185 64 330 127 25 10 54 23 65 28 52 22
547 268 598 296 31 18 57 30 57 27 0 -3 7 0 15 7 19 16 233 124 308 156 50 21
62 23 100 13 31 -7 49 -19 61 -40 38 -65 50 -11 14 61 -25 49 -89 90 -141 90
-78 0 -304 -105 -773 -358 -286 -155 -624 -310 -773 -354 -116 -35 -166 -49
-185 -53 -11 -3 -40 -11 -65 -20 -77 -25 -310 -79 -391 -91 -19 -2 -50 -9 -70
-14 -19 -5 -60 -12 -90 -15 -30 -4 -57 -8 -60 -10 -3 -2 -34 -6 -70 -10 -82
-10 -104 -13 -110 -15 -3 -1 -8 -2 -12 -1 -4 0 -29 -4 -56 -9 -27 -5 -71 -12
-98 -15 -79 -9 -123 -24 -155 -53 -27 -24 -34 -43 -64 -177 -50 -222 -86 -387
-91 -415 -3 -14 -12 -52 -21 -85 -8 -33 -17 -71 -19 -85 -3 -14 -7 -33 -10
-42 -3 -9 -7 -25 -9 -35 -3 -15 -43 -166 -100 -378 -9 -33 -19 -67 -22 -75 -3
-8 -6 -17 -5 -20 0 -4 -93 -285 -182 -545 -1 -5 -7 -19 -11 -30 -4 -11 -30
-76 -57 -145 -50 -125 -69 -170 -114 -267 -13 -28 -24 -55 -24 -58 0 -15 -143
-290 -179 -345 -23 -34 -41 -63 -41 -65 0 -2 -18 -33 -40 -67 -22 -35 -40 -68
-40 -75 0 -6 -3 -13 -7 -15 -5 -1 -17 -19 -27 -38 -11 -19 -43 -71 -71 -115
-50 -78 -134 -221 -135 -230 0 -3 0 -9 0 -15 0 -25 -19 -6 -34 34 -9 24 -49
95 -88 157 -39 63 -99 161 -133 219 -34 58 -88 148 -120 200 -51 82 -185 340
-185 355 0 3 -11 28 -25 57 -14 28 -25 58 -25 65 0 7 -4 13 -10 13 -5 0 -10 6
-10 13 0 6 -18 55 -39 107 -92 219 -288 788 -307 885 -1 6 -13 53 -28 105 -30
110 -46 173 -45 180 0 3 -4 17 -10 33 -6 15 -13 38 -15 50 -2 12 -12 54 -21
92 -20 85 -16 69 -55 240 -28 125 -40 184 -56 265 -3 14 -12 52 -20 85 -9 33
-18 72 -19 87 -5 34 -23 69 -44 85 -24 18 -99 42 -155 48 -27 4 -72 11 -100
16 -28 6 -69 12 -91 14 -22 2 -53 6 -70 8 -16 3 -64 11 -105 16 -75 11 -113
17 -160 26 -14 3 -38 8 -55 11 -16 2 -38 7 -47 10 -19 6 -41 10 -89 18 -19 3
-90 21 -159 41 -69 19 -134 37 -145 40 -19 5 -84 24 -217 64 -143 43 -442 182
-753 349 -498 268 -684 353 -767 351 -18 -1 -53 -12 -77 -26z m3987 -4159 c7
-13 17 -24 22 -24 5 0 11 -8 14 -18 4 -10 14 -27 24 -38 10 -10 35 -44 55 -76
21 -31 44 -62 52 -68 8 -7 15 -19 15 -26 0 -8 3 -14 8 -14 4 0 18 -18 32 -40
14 -22 28 -40 32 -40 5 0 8 -7 8 -15 0 -50 48 5 235 269 110 156 201 282 203
281 5 -4 17 -84 27 -180 5 -47 15 -118 20 -145 6 -28 11 -58 19 -110 8 -49 15
-87 27 -148 6 -29 12 -65 14 -80 2 -15 10 -61 18 -102 9 -41 19 -93 23 -115 4
-22 9 -47 11 -55 1 -8 5 -28 7 -45 3 -16 12 -66 20 -110 9 -44 18 -96 20 -115
3 -19 7 -46 10 -60 5 -23 15 -79 21 -125 5 -30 14 -77 29 -150 15 -73 16 -72
-59 -50 -27 9 -59 17 -70 20 -11 2 -31 6 -45 9 -27 6 -113 22 -170 30 -64 11
-234 19 -350 19 -171 -1 -279 -11 -435 -38 -44 -8 -92 -16 -108 -19 -15 -3
-37 -8 -48 -11 -12 -4 -31 -8 -42 -10 -12 -1 -29 -4 -37 -6 -8 -2 -14 1 -13 8
1 6 5 26 9 45 3 18 7 39 7 46 0 6 3 12 6 12 3 0 7 10 7 23 1 20 7 64 17 127 5
29 12 66 38 210 10 58 21 122 25 144 3 21 7 48 10 60 2 11 13 71 24 131 12 61
25 130 31 155 5 25 12 62 15 84 3 21 8 48 10 60 2 11 6 35 9 51 3 17 7 44 10
60 3 17 8 44 10 60 2 17 7 46 10 65 8 45 14 92 21 160 7 62 11 93 13 99 1 6
122 -163 139 -195z"/>
</g>
</svg>
