<svg xmlns="http://www.w3.org/2000/svg" viewBox="8.025300000000001 164.506 558.9497024414062 245.98899078369138"> <svg xmlnsXodm="http://www.corel.com/coreldraw/odm/2003" xmlns="http://www.w3.org/2000/svg" xmlns:xlink="http://www.w3.org/1999/xlink" version="1.1" id="aaaa_1" x="78.0253" y="234.506" viewBox="134.10000610351562 136.23573303222656 110 113.26426696777344" xml:space="preserve" height="105.9889907836914" width="102.93438344447304" preserveAspectRatio="xMinYMin" enable-background="new 0 0 360 360" style="overflow: visible;"><path id="aaaa_x0020_1" class="st0" d="M189.1,139.5c-30.4,0-55,24.6-55,55s24.6,55,55,55s55-24.6,55-55c0-20.2-11-37.9-27.3-47.5l-0.2,1.2   c15.8,9.4,26.4,26.6,26.4,46.3c0,29.7-24.1,53.8-53.8,53.8c-29.7,0-53.8-24.1-53.8-53.8c0-29.7,24.1-53.8,53.8-53.8   c5.8,0,11.5,0.9,16.7,2.7l0.2-0.6c0-0.2-0.1-0.4-0.1-0.6C200.7,140.4,195,139.5,189.1,139.5L189.1,139.5z M215.6,146.3   c-2.6-1.4-5.4-2.7-8.2-3.7c0,0.2,0,0.3-0.1,0.5l-0.2,0.6c2.9,1,5.6,2.3,8.2,3.7L215.6,146.3z" style="fill-rule: evenodd; clip-rule: evenodd; fill: #2a2b29;"></path><path id="aaaa_x0020_1" class="st0" d="M206.3,146.1l0.4-1.2l0.6-1.8c0.1-0.2,0.1-0.4,0-0.7c-0.2-0.8-0.2-1.6,0.1-2.4c0.7-2.7,3.6-4.3,6.3-3.6   c2.7,0.7,4.3,3.6,3.6,6.3c-0.2,0.8-0.6,1.5-1.2,2.1c-0.2,0.2-0.3,0.4-0.3,0.6l-0.6,2.8l-0.4,1.8c15.3,8.9,25.6,25.4,25.6,44.4   c0,28.3-23,51.3-51.3,51.3c-28.3,0-51.3-23-51.3-51.3c0-28.3,23-51.3,51.3-51.3C195.2,143.2,201,144.2,206.3,146.1L206.3,146.1z" style="fill-rule: evenodd; clip-rule: evenodd; fill: #2a2b29;"></path><path id="aaaa_x0020_1" class="st1" d="M172.5,196.5c-0.5,0.4-1,0.9-1.7,1.5c-3.8,3.5-11.2,10.5-15.6,14.7c-1.4,1.3-2.5,2.4-3.4,3.2   c-0.5,0.5-0.7,1.3-0.5,2.1c0.2,0.8,0.8,1.3,1.5,1.3l23.8,1.7c1.2,0.1,2-1,1.8-2.3l-3.3-20.9c-0.1-0.7-0.5-1.2-1.1-1.5   C173.6,196,173,196.1,172.5,196.5L172.5,196.5z" style="fill-rule: evenodd; clip-rule: evenodd; fill: #f5f5f5; fill-opacity: 1;"></path><path id="aaaa_x0020_1" class="st2" d="M224.4,215.1c-0.7-0.7-1.6-1.5-2.7-2.5c-3.9-3.4-10.8-9.5-14.5-12.5c-1.3-1.1-2.3-1.8-3.2-2.2   c-0.3-0.2-0.7-0.2-1.1,0c-0.4,0.2-0.6,0.4-0.7,0.8l-2,7.4c-0.1,0.4,0,0.7,0.2,1c0.2,0.3,0.5,0.5,0.9,0.5c1.6,0.1,2.6,0.3,2.6,0.5   c0,0.4-4.2,0.7-9.3,0.7c-1.1,0-9.1,0-9-0.8c0.1-0.6,3.6-0.4,3.7-0.8l2.6-9.6c0.1-0.4,0-0.7-0.2-1c-0.2-0.3-0.5-0.5-0.9-0.5   c-4-0.4-8.4-0.8-11.2-1.1c-0.5-0.1-1-0.1-1.5-0.1c-0.6,0-1.1,0.2-1.4,0.7c-0.4,0.5-0.5,1-0.4,1.7l4.6,24.1c0.1,0.6,0.4,1.1,0.9,1.3   l14.3,7.6c0.5,0.2,0.9,0.3,1.4,0l26.4-11.7c0.6-0.3,1-0.8,1.1-1.5C225.1,216.2,224.9,215.6,224.4,215.1z M200.1,241.5l-3.8-8.6   c-0.2-0.4-0.4-0.7-0.8-0.8l-13.9-7.3c-0.8-0.4-1.7-0.1-2.2,0.7l-9,13.5c5.7,2.4,12,3.7,18.6,3.7   C192.9,242.7,196.6,242.3,200.1,241.5z" style="fill-rule: evenodd; clip-rule: evenodd; fill: #f5f5f5; fill-opacity: 1;"></path><path id="aaaa_x0020_1" class="st3" d="M227.6,219.9c-0.4-1-1.3-1.6-2.3-1.1l-25.4,12.5c-1,0.5-1.4,1.6-0.9,2.7l3.1,7c10.8-3,20.1-9.7,26.5-18.6   L227.6,219.9L227.6,219.9z M169.3,238.5c0.1-0.1,0.2-0.2,0.3-0.3l7.2-12.1c0.8-1.3,0-2.8-1.3-3l-25.7-2.9c-0.6-0.1-1,0.1-1.3,0.3   C153.5,228.4,160.8,234.6,169.3,238.5L169.3,238.5z" style="fill-rule: evenodd; clip-rule: evenodd; fill: #ffffff;"></path><path id="aaaa_x0020_1" class="st4" d="M207.3,159.6c4.5,1.2,8.6,2.5,11.2,3.5c0.2,0.1,0.4,0,0.5-0.1c0.5-0.5,1.2-0.7,1.8-0.5c1,0.3,1.6,1.3,1.4,2.4   c-0.3,1-1.3,1.6-2.4,1.4c-0.7-0.2-1.2-0.7-1.3-1.3c-0.1-0.2-0.2-0.3-0.4-0.3c-2.8-0.5-6.9-1.4-11.4-2.7c-4.5-1.2-8.6-2.5-11.2-3.5   c-0.2-0.1-0.4,0-0.5,0.1c-0.5,0.5-1.2,0.7-1.8,0.5c-1-0.3-1.6-1.3-1.4-2.4c0.3-1,1.3-1.6,2.4-1.4c0.7,0.2,1.2,0.7,1.3,1.3   c0.1,0.2,0.2,0.3,0.4,0.3C198.7,157.4,202.8,158.3,207.3,159.6L207.3,159.6z M212.9,139.3c1.1,0.3,1.8,1.5,1.5,2.6   c-0.3,1.1-1.5,1.8-2.6,1.5c-1.1-0.3-1.8-1.5-1.5-2.6C210.6,139.7,211.8,139,212.9,139.3L212.9,139.3z M213.2,138.4   c1.6,0.4,2.6,2.1,2.2,3.8c-0.2,0.8-0.7,1.4-1.3,1.8c-0.2,0.1-0.3,0.3-0.2,0.5c0,0.1,0,0.3,0,0.5c0,0.1,0,0.2-0.1,0.2   c0,0.1-0.1,0.2-0.2,0.3c-0.1,0.1-0.2,0.1-0.4,0.1c-0.6-0.2-1.2-0.3-1.8-0.5c-0.6-0.2-1.2-0.3-1.8-0.5c-0.1,0-0.2-0.1-0.3-0.2   c-0.1-0.1-0.1-0.3,0-0.4c0-0.1,0.1-0.2,0.1-0.2c0.1-0.2,0.1-0.3,0.2-0.4c0.1-0.2,0.2-0.4,0.1-0.6c-0.3-0.7-0.4-1.4-0.2-2.2   C209.8,138.9,211.5,138,213.2,138.4L213.2,138.4z M211.2,155.4c-0.8-0.2-1.6-0.4-2.4-0.7c-0.8-0.2-1.6-0.4-2.4-0.7   c-0.3-0.1-0.5,0.1-0.6,0.3c0,0.1-0.1,0.2-0.1,0.3c-0.1,0.4,0,0.8,0.3,0.9c0.8,0.2,1.6,0.4,2.4,0.6c0.8,0.2,1.6,0.4,2.4,0.6   c0.3,0.1,0.7-0.2,0.8-0.6c0-0.1,0-0.2,0.1-0.3C211.6,155.7,211.4,155.4,211.2,155.4L211.2,155.4z M213.1,146.3   c-0.6-0.2-1.3-0.3-1.9-0.5c-0.6-0.2-1.3-0.3-1.9-0.5c-0.3-0.1-0.5,0.1-0.6,0.3c-0.1,0.2-0.1,0.4-0.2,0.5c0,0.1,0,0.3,0,0.4   c0.1,0.1,0.2,0.2,0.3,0.2c0.6,0.2,1.3,0.4,1.9,0.5c0.6,0.2,1.3,0.4,1.9,0.5c0.1,0,0.3,0,0.4-0.1c0.1-0.1,0.2-0.2,0.2-0.3   c0-0.2,0.1-0.4,0.1-0.5C213.5,146.6,213.3,146.4,213.1,146.3z M212.6,148.6c-0.7-0.2-1.4-0.4-2-0.6c-0.7-0.2-1.4-0.4-2-0.6   c-0.2-0.1-0.5,0.1-0.6,0.3c-0.1,0.2-0.1,0.4-0.2,0.5c0,0.1,0,0.3,0,0.4c0.1,0.1,0.2,0.2,0.3,0.2c0.7,0.2,1.4,0.4,2.1,0.6   c0.7,0.2,1.4,0.4,2.1,0.6c0.1,0,0.3,0,0.4-0.1c0.1-0.1,0.2-0.2,0.2-0.3c0-0.2,0.1-0.4,0.1-0.5C213,148.9,212.8,148.7,212.6,148.6   L212.6,148.6z M212.1,150.9c-0.7-0.2-1.5-0.4-2.2-0.6c-0.7-0.2-1.4-0.4-2.2-0.6c-0.2-0.1-0.5,0.1-0.6,0.3c-0.1,0.2-0.1,0.4-0.2,0.5   c0,0.1,0,0.3,0,0.4c0.1,0.1,0.2,0.2,0.3,0.2c0.7,0.2,1.5,0.4,2.2,0.6c0.7,0.2,1.5,0.4,2.2,0.6c0.1,0,0.3,0,0.4-0.1   c0.1-0.1,0.2-0.2,0.2-0.3c0-0.2,0.1-0.4,0.1-0.5C212.5,151.2,212.4,150.9,212.1,150.9L212.1,150.9z M211.7,153.1   c-0.8-0.2-1.5-0.4-2.3-0.6c-0.8-0.2-1.5-0.4-2.3-0.6c-0.3-0.1-0.5,0.1-0.6,0.3c-0.1,0.2-0.1,0.4-0.2,0.5c0,0.1,0,0.3,0,0.4   c0.1,0.1,0.2,0.2,0.3,0.2c0.8,0.2,1.6,0.4,2.3,0.6c0.8,0.2,1.6,0.4,2.3,0.6c0.1,0,0.3,0,0.4-0.1c0.1-0.1,0.2-0.2,0.2-0.3   c0-0.2,0.1-0.4,0.1-0.6C212.1,153.4,211.9,153.2,211.7,153.1L211.7,153.1z" style="fill-rule: evenodd; clip-rule: evenodd; fill: #cc9133;"></path><path id="aaaa_x0020_1" class="st3" d="M200.9,156.3c0.7-0.6,1.8-0.9,2.8-0.6l8.9,2.4c1,0.3,1.8,1,2.1,1.9c0.1,0.2,0,0.4-0.1,0.5   c-0.1,0.1-0.3,0.2-0.5,0.1c-2-0.6-4.2-1.3-6.5-1.9c-2.3-0.6-4.5-1.2-6.4-1.6c-0.2,0-0.3-0.2-0.4-0.4   C200.7,156.6,200.8,156.5,200.9,156.3z M205.2,162.6l-7.9,33.7c0,0.1,0,0.3,0.2,0.3c0.1,0,0.3,0,0.3-0.2l10.1-33.1   c0.1-0.2,0.3-0.4,0.6-0.3c0.7,0.2,1.5,0.4,2.2,0.6c0.1,0,0.2,0.1,0.3,0.2c0.1,0.1,0.1,0.2,0.1,0.4l-11.8,43.5   c-0.1,0.2-0.2,0.4-0.5,0.4l-8.5,0c-0.2,0-0.3-0.1-0.4-0.2c-0.1-0.1-0.1-0.3-0.1-0.4l12.3-45.6c0-0.1,0.1-0.2,0.2-0.3   c0.1-0.1,0.2-0.1,0.4,0c0.7,0.2,1.4,0.4,2.1,0.6C205.1,162.1,205.2,162.3,205.2,162.6L205.2,162.6z" style="fill-rule: evenodd; clip-rule: evenodd; fill: #ffffff;"></path><path id="aaaa_x0020_1" class="st3" d="M212.8,139.9c0.8,0.2,1.3,1.1,1.1,1.9c-0.2,0.8-1.1,1.3-1.9,1.1c-0.8-0.2-1.3-1.1-1.1-1.9   C211.1,140.1,211.9,139.7,212.8,139.9z" style="fill-rule: evenodd; clip-rule: evenodd; fill: #ffffff;"></path><path id="aaaa_x0020_1" class="st4" d="M181.8,177c0.6,3.2-0.1,4.1,2.8,5c-2.9,1.1-2.1,1.8-2.7,5.1c-0.7-3.3,0.1-4-2.9-5.1   C182,181,181.2,180.2,181.8,177z M230.5,209.1c0.4,2.2-0.1,2.7,1.9,3.4c-2,0.7-1.4,1.2-1.8,3.4c-0.5-2.2,0.1-2.7-1.9-3.4   C230.6,211.8,230.1,211.4,230.5,209.1L230.5,209.1z M225.9,169.3c0.4,2.2-0.1,2.7,1.9,3.4c-2,0.7-1.4,1.2-1.8,3.4   c-0.5-2.2,0.1-2.7-1.9-3.4C226,172,225.5,171.5,225.9,169.3z" style="fill-rule: evenodd; clip-rule: evenodd; fill: #cc9133;"></path><path id="aaaa_x0020_1" class="st3" d="M154.6,183.8c0.5,2.6-0.1,3.3,2.3,4.1c-2.4,0.9-1.8,1.5-2.2,4.2c-0.5-2.7,0.1-3.3-2.4-4.1   C154.7,187,154.1,186.5,154.6,183.8z M168.5,157.5c0.9,4.6-0.1,5.8,4,7.1c-4.1,1.5-3.1,2.6-3.9,7.3c-1-4.7,0.1-5.7-4.1-7.2   C168.6,163.2,167.6,162.2,168.5,157.5L168.5,157.5z M212,188.1c0.5,2.6-0.1,3.4,2.3,4.1c-2.4,0.9-1.8,1.5-2.3,4.2   c-0.6-2.7,0.1-3.3-2.4-4.2C212.1,191.4,211.5,190.8,212,188.1z" style="fill-rule: evenodd; clip-rule: evenodd; fill: #ffffff;"></path></svg> <svg x="193.785" y="277.14" viewBox="2.950000047683716 10.760000228881836 303.19000244140625 32.44000244140625" height="32.44000244140625" width="303.19000244140625" style="overflow: visible;"><g fill="#000000" style=""><path d="M4.82 36.65L4.82 36.65Q3.92 36.65 3.44 36.14Q2.95 35.64 2.95 34.74L2.95 34.74L2.95 12.92Q2.95 11.99 3.46 11.50Q3.96 11.02 4.86 11.02L4.86 11.02L13.46 11.02Q17.57 11.02 19.80 13.05Q22.03 15.08 22.03 18.76L22.03 18.76Q22.03 22.46 19.80 24.50Q17.57 26.53 13.46 26.53L13.46 26.53L6.70 26.53L6.70 34.74Q6.70 35.64 6.23 36.14Q5.76 36.65 4.82 36.65ZM6.70 14.00L6.70 23.54L12.92 23.54Q15.62 23.54 17.01 22.34Q18.40 21.13 18.40 18.76L18.40 18.76Q18.40 16.42 17.01 15.21Q15.62 14.00 12.92 14.00L12.92 14.00L6.70 14.00ZM27.14 36.65L27.14 36.65Q26.24 36.65 25.78 36.16Q25.31 35.68 25.31 34.81L25.31 34.81L25.31 20.41Q25.31 19.51 25.78 19.04Q26.24 18.58 27.07 18.58L27.07 18.58Q27.94 18.58 28.39 19.04Q28.84 19.51 28.84 20.41L28.84 20.41L28.84 23.04L28.48 23.04Q29.05 20.88 30.60 19.76Q32.15 18.65 34.56 18.47L34.56 18.47Q35.21 18.43 35.59 18.79Q35.96 19.15 36 19.91L36 19.91Q36.07 20.66 35.68 21.11Q35.28 21.56 34.45 21.64L34.45 21.64L33.77 21.71Q31.43 21.92 30.20 23.18Q28.98 24.44 28.98 26.64L28.98 26.64L28.98 34.81Q28.98 35.68 28.53 36.16Q28.08 36.65 27.14 36.65ZM40.54 36.61L40.54 36.61Q39.67 36.61 39.20 36.09Q38.74 35.57 38.74 34.63L38.74 34.63L38.74 20.59Q38.74 19.66 39.20 19.15Q39.67 18.65 40.54 18.65L40.54 18.65Q41.40 18.65 41.89 19.15Q42.37 19.66 42.37 20.59L42.37 20.59L42.37 34.63Q42.37 35.57 41.90 36.09Q41.44 36.61 40.54 36.61ZM40.54 14.90L40.54 14.90Q39.46 14.90 38.86 14.36Q38.27 13.82 38.27 12.85L38.27 12.85Q38.27 11.84 38.86 11.32Q39.46 10.80 40.54 10.80L40.54 10.80Q41.62 10.80 42.21 11.32Q42.80 11.84 42.80 12.85L42.80 12.85Q42.80 13.82 42.21 14.36Q41.62 14.90 40.54 14.90ZM49.28 36.65L49.28 36.65Q48.42 36.65 47.95 36.16Q47.48 35.68 47.48 34.81L47.48 34.81L47.48 20.41Q47.48 19.51 47.95 19.04Q48.42 18.58 49.25 18.58L49.25 18.58Q50.11 18.58 50.56 19.04Q51.01 19.51 51.01 20.41L51.01 20.41L51.01 23.22L50.62 22.57Q51.41 20.56 53.10 19.53Q54.79 18.50 56.99 18.50L56.99 18.50Q59.08 18.50 60.46 19.28Q61.85 20.05 62.53 21.62Q63.22 23.18 63.22 25.56L63.22 25.56L63.22 34.81Q63.22 35.68 62.75 36.16Q62.28 36.65 61.42 36.65L61.42 36.65Q60.52 36.65 60.05 36.16Q59.58 35.68 59.58 34.81L59.58 34.81L59.58 25.78Q59.58 23.51 58.70 22.46Q57.82 21.42 55.94 21.42L55.94 21.42Q53.75 21.42 52.43 22.79Q51.12 24.16 51.12 26.46L51.12 26.46L51.12 34.81Q51.12 36.65 49.28 36.65ZM75.71 36.72L75.71 36.72Q73.55 36.72 72.07 35.96Q70.60 35.21 69.88 33.73Q69.16 32.26 69.16 30.13L69.16 30.13L69.16 21.64L67.00 21.64Q66.28 21.64 65.88 21.26Q65.48 20.88 65.48 20.23L65.48 20.23Q65.48 19.55 65.88 19.19Q66.28 18.83 67.00 18.83L67.00 18.83L69.16 18.83L69.16 15.12Q69.16 14.22 69.64 13.75Q70.13 13.28 70.99 13.28L70.99 13.28Q71.86 13.28 72.32 13.75Q72.79 14.22 72.79 15.12L72.79 15.12L72.79 18.83L77.00 18.83Q77.72 18.83 78.12 19.19Q78.52 19.55 78.52 20.23L78.52 20.23Q78.52 20.88 78.12 21.26Q77.72 21.64 77.00 21.64L77.00 21.64L72.79 21.64L72.79 29.84Q72.79 31.75 73.60 32.72Q74.41 33.70 76.25 33.70L76.25 33.70Q76.90 33.70 77.38 33.57Q77.87 33.44 78.19 33.41L78.19 33.41Q78.59 33.41 78.84 33.68Q79.09 33.95 79.09 34.70L79.09 34.70Q79.09 35.24 78.89 35.71Q78.70 36.18 78.19 36.32L78.19 36.32Q77.76 36.47 77.02 36.59Q76.28 36.72 75.71 36.72ZM89.42 36.72L89.42 36.72Q86.54 36.72 84.47 35.62Q82.40 34.52 81.27 32.49Q80.14 30.46 80.14 27.65L80.14 27.65Q80.14 24.91 81.25 22.86Q82.37 20.81 84.31 19.66Q86.26 18.50 88.74 18.50L88.74 18.50Q90.58 18.50 92.02 19.10Q93.46 19.69 94.48 20.83Q95.51 21.96 96.03 23.58Q96.55 25.20 96.55 27.22L96.55 27.22Q96.55 27.83 96.19 28.13Q95.83 28.44 95.11 28.44L95.11 28.44L83.02 28.44L83.02 26.21L94.10 26.21L93.49 26.71Q93.49 24.91 92.97 23.65Q92.45 22.39 91.42 21.73Q90.40 21.06 88.88 21.06L88.88 21.06Q87.19 21.06 86.02 21.85Q84.85 22.64 84.24 24.05Q83.63 25.45 83.63 27.32L83.63 27.32L83.63 27.54Q83.63 30.71 85.12 32.31Q86.62 33.91 89.46 33.91L89.46 33.91Q90.54 33.91 91.75 33.62Q92.95 33.34 94.03 32.65L94.03 32.65Q94.64 32.29 95.13 32.33Q95.62 32.36 95.92 32.65Q96.23 32.94 96.30 33.37Q96.37 33.80 96.16 34.25Q95.94 34.70 95.40 35.06L95.40 35.06Q94.18 35.89 92.56 36.31Q90.94 36.72 89.42 36.72ZM107.21 36.72L107.21 36.72Q104.90 36.72 103.16 35.62Q101.41 34.52 100.44 32.45Q99.47 30.38 99.47 27.61L99.47 27.61Q99.47 24.77 100.44 22.75Q101.41 20.74 103.16 19.62Q104.90 18.50 107.21 18.50L107.21 18.50Q109.51 18.50 111.19 19.64Q112.86 20.77 113.44 22.68L113.44 22.68L113.04 22.68L113.04 12.60Q113.04 11.70 113.51 11.23Q113.98 10.76 114.84 10.76L114.84 10.76Q115.70 10.76 116.19 11.23Q116.68 11.70 116.68 12.60L116.68 12.60L116.68 34.81Q116.68 35.68 116.21 36.16Q115.74 36.65 114.88 36.65L114.88 36.65Q114.01 36.65 113.54 36.16Q113.08 35.68 113.08 34.81L113.08 34.81L113.08 31.64L113.47 32.44Q112.90 34.38 111.22 35.55Q109.55 36.72 107.21 36.72ZM108.14 33.91L108.14 33.91Q109.62 33.91 110.74 33.19Q111.85 32.47 112.48 31.07Q113.11 29.66 113.11 27.61L113.11 27.61Q113.11 24.52 111.74 22.93Q110.38 21.35 108.14 21.35L108.14 21.35Q106.63 21.35 105.52 22.05Q104.40 22.75 103.77 24.16Q103.14 25.56 103.14 27.61L103.14 27.61Q103.14 30.67 104.51 32.29Q105.88 33.91 108.14 33.91ZM140.22 36.65L140.22 36.65Q139.43 36.65 138.94 36.25Q138.46 35.86 138.13 35.03L138.13 35.03L130.39 12.96Q130.07 12.02 130.52 11.39Q130.97 10.76 132.01 10.76L132.01 10.76Q132.80 10.76 133.25 11.12Q133.70 11.48 133.96 12.28L133.96 12.28L140.98 32.94L139.64 32.94L146.84 12.35Q147.17 11.56 147.60 11.16Q148.03 10.76 148.75 10.76L148.75 10.76Q149.47 10.76 149.89 11.16Q150.30 11.56 150.62 12.38L150.62 12.38L157.68 32.94L156.49 32.94L163.58 12.28Q163.84 11.52 164.29 11.14Q164.74 10.76 165.49 10.76L165.49 10.76Q166.43 10.76 166.88 11.39Q167.33 12.02 166.97 12.96L166.97 12.96L159.19 35.06Q158.87 35.86 158.40 36.25Q157.93 36.65 157.14 36.65L157.14 36.65Q156.31 36.65 155.84 36.25Q155.38 35.86 155.09 35.03L155.09 35.03L148.28 15.55L149.08 15.55L142.20 35.06Q141.91 35.86 141.46 36.25Q141.01 36.65 140.22 36.65ZM174.64 36.72L174.64 36.72Q172.80 36.72 171.34 36Q169.88 35.28 169.06 34.06Q168.23 32.83 168.23 31.28L168.23 31.28Q168.23 29.34 169.22 28.21Q170.21 27.07 172.49 26.59Q174.78 26.10 178.67 26.10L178.67 26.10L180.36 26.10L180.36 28.33L178.70 28.33Q176.11 28.33 174.60 28.58Q173.09 28.84 172.46 29.43Q171.83 30.02 171.83 31.07L171.83 31.07Q171.83 32.44 172.76 33.28Q173.70 34.13 175.36 34.13L175.36 34.13Q176.69 34.13 177.70 33.50Q178.70 32.87 179.30 31.79Q179.89 30.71 179.89 29.30L179.89 29.30L179.89 25.16Q179.89 23.11 179.03 22.21Q178.16 21.31 176.18 21.31L176.18 21.31Q175.03 21.31 173.79 21.60Q172.55 21.89 171.22 22.57L171.22 22.57Q170.60 22.86 170.17 22.75Q169.74 22.64 169.49 22.27Q169.24 21.89 169.22 21.44Q169.20 20.99 169.43 20.56Q169.67 20.12 170.24 19.91L170.24 19.91Q171.83 19.15 173.38 18.83Q174.92 18.50 176.29 18.50L176.29 18.50Q178.70 18.50 180.27 19.26Q181.84 20.02 182.59 21.56Q183.35 23.11 183.35 25.56L183.35 25.56L183.35 34.81Q183.35 35.68 182.92 36.16Q182.48 36.65 181.66 36.65L181.66 36.65Q180.86 36.65 180.40 36.16Q179.93 35.68 179.93 34.81L179.93 34.81L179.93 32.47L180.25 32.47Q179.96 33.80 179.19 34.76Q178.42 35.71 177.26 36.22Q176.11 36.72 174.64 36.72ZM190.19 36.65L190.19 36.65Q189.29 36.65 188.82 36.16Q188.35 35.68 188.35 34.81L188.35 34.81L188.35 20.41Q188.35 19.51 188.82 19.04Q189.29 18.58 190.12 18.58L190.12 18.58Q190.98 18.58 191.43 19.04Q191.88 19.51 191.88 20.41L191.88 20.41L191.88 23.04L191.52 23.04Q192.10 20.88 193.64 19.76Q195.19 18.65 197.60 18.47L197.60 18.47Q198.25 18.43 198.63 18.79Q199.01 19.15 199.04 19.91L199.04 19.91Q199.12 20.66 198.72 21.11Q198.32 21.56 197.50 21.64L197.50 21.64L196.81 21.71Q194.47 21.92 193.25 23.18Q192.02 24.44 192.02 26.64L192.02 26.64L192.02 34.81Q192.02 35.68 191.57 36.16Q191.12 36.65 190.19 36.65ZM209.48 43.20L209.48 43.20Q207.54 43.20 205.72 42.80Q203.90 42.41 202.43 41.51L202.43 41.51Q201.89 41.22 201.71 40.81Q201.53 40.39 201.62 39.96Q201.71 39.53 202.00 39.20Q202.28 38.88 202.70 38.77Q203.11 38.66 203.58 38.92L203.58 38.92Q205.16 39.78 206.59 40.09Q208.01 40.39 209.23 40.39L209.23 40.39Q211.75 40.39 213.01 39.11Q214.27 37.84 214.27 35.35L214.27 35.35L214.27 31.68L214.60 31.68Q214.06 33.66 212.33 34.81Q210.60 35.96 208.33 35.96L208.33 35.96Q205.96 35.96 204.19 34.87Q202.43 33.77 201.46 31.81Q200.48 29.84 200.48 27.22L200.48 27.22Q200.48 25.24 201.04 23.65Q201.60 22.07 202.63 20.92Q203.65 19.76 205.11 19.13Q206.57 18.50 208.33 18.50L208.33 18.50Q210.64 18.50 212.35 19.66Q214.06 20.81 214.56 22.79L214.56 22.79L214.20 23.40L214.20 20.41Q214.20 19.51 214.69 19.04Q215.17 18.58 216 18.58L216 18.58Q216.86 18.58 217.33 19.04Q217.80 19.51 217.80 20.41L217.80 20.41L217.80 34.92Q217.80 39.02 215.68 41.11Q213.55 43.20 209.48 43.20ZM209.20 33.12L209.20 33.12Q210.78 33.12 211.90 32.40Q213.01 31.68 213.62 30.35Q214.24 29.02 214.24 27.22L214.24 27.22Q214.24 24.52 212.89 22.93Q211.54 21.35 209.20 21.35L209.20 21.35Q207.65 21.35 206.53 22.07Q205.42 22.79 204.79 24.10Q204.16 25.42 204.16 27.22L204.16 27.22Q204.16 29.95 205.52 31.54Q206.89 33.12 209.20 33.12ZM228.53 36.72L228.53 36.72Q226.69 36.72 225.23 36Q223.78 35.28 222.95 34.06Q222.12 32.83 222.12 31.28L222.12 31.28Q222.12 29.34 223.11 28.21Q224.10 27.07 226.39 26.59Q228.67 26.10 232.56 26.10L232.56 26.10L234.25 26.10L234.25 28.33L232.60 28.33Q230.00 28.33 228.49 28.58Q226.98 28.84 226.35 29.43Q225.72 30.02 225.72 31.07L225.72 31.07Q225.72 32.44 226.66 33.28Q227.59 34.13 229.25 34.13L229.25 34.13Q230.58 34.13 231.59 33.50Q232.60 32.87 233.19 31.79Q233.78 30.71 233.78 29.30L233.78 29.30L233.78 25.16Q233.78 23.11 232.92 22.21Q232.06 21.31 230.08 21.31L230.08 21.31Q228.92 21.31 227.68 21.60Q226.44 21.89 225.11 22.57L225.11 22.57Q224.50 22.86 224.06 22.75Q223.63 22.64 223.38 22.27Q223.13 21.89 223.11 21.44Q223.09 20.99 223.33 20.56Q223.56 20.12 224.14 19.91L224.14 19.91Q225.72 19.15 227.27 18.83Q228.82 18.50 230.18 18.50L230.18 18.50Q232.60 18.50 234.16 19.26Q235.73 20.02 236.48 21.56Q237.24 23.11 237.24 25.56L237.24 25.56L237.24 34.81Q237.24 35.68 236.81 36.16Q236.38 36.65 235.55 36.65L235.55 36.65Q234.76 36.65 234.29 36.16Q233.82 35.68 233.82 34.81L233.82 34.81L233.82 32.47L234.14 32.47Q233.86 33.80 233.08 34.76Q232.31 35.71 231.16 36.22Q230.00 36.72 228.53 36.72ZM244.12 36.65L244.12 36.65Q243.25 36.65 242.78 36.16Q242.32 35.68 242.32 34.81L242.32 34.81L242.32 20.41Q242.32 19.51 242.78 19.04Q243.25 18.58 244.08 18.58L244.08 18.58Q244.94 18.58 245.39 19.04Q245.84 19.51 245.84 20.41L245.84 20.41L245.84 23.36L245.45 22.57Q246.17 20.66 247.68 19.58Q249.19 18.50 251.32 18.50L251.32 18.50Q253.51 18.50 254.88 19.55Q256.25 20.59 256.75 22.75L256.75 22.75L256.25 22.75Q256.93 20.77 258.59 19.64Q260.24 18.50 262.44 18.50L262.44 18.50Q264.46 18.50 265.75 19.28Q267.05 20.05 267.70 21.62Q268.34 23.18 268.34 25.56L268.34 25.56L268.34 34.81Q268.34 35.68 267.86 36.16Q267.37 36.65 266.51 36.65L266.51 36.65Q265.64 36.65 265.18 36.16Q264.71 35.68 264.71 34.81L264.71 34.81L264.71 25.74Q264.71 23.51 263.93 22.46Q263.16 21.42 261.40 21.42L261.40 21.42Q259.42 21.42 258.26 22.79Q257.11 24.16 257.11 26.57L257.11 26.57L257.11 34.81Q257.11 35.68 256.64 36.16Q256.18 36.65 255.31 36.65L255.31 36.65Q254.45 36.65 253.96 36.16Q253.48 35.68 253.48 34.81L253.48 34.81L253.48 25.74Q253.48 23.51 252.72 22.46Q251.96 21.42 250.20 21.42L250.20 21.42Q248.22 21.42 247.09 22.79Q245.95 24.16 245.95 26.57L245.95 26.57L245.95 34.81Q245.95 36.65 244.12 36.65ZM281.66 36.72L281.66 36.72Q278.78 36.72 276.71 35.62Q274.64 34.52 273.51 32.49Q272.38 30.46 272.38 27.65L272.38 27.65Q272.38 24.91 273.49 22.86Q274.61 20.81 276.55 19.66Q278.50 18.50 280.98 18.50L280.98 18.50Q282.82 18.50 284.26 19.10Q285.70 19.69 286.72 20.83Q287.75 21.96 288.27 23.58Q288.79 25.20 288.79 27.22L288.79 27.22Q288.79 27.83 288.43 28.13Q288.07 28.44 287.35 28.44L287.35 28.44L275.26 28.44L275.26 26.21L286.34 26.21L285.73 26.71Q285.73 24.91 285.21 23.65Q284.69 22.39 283.66 21.73Q282.64 21.06 281.12 21.06L281.12 21.06Q279.43 21.06 278.26 21.85Q277.09 22.64 276.48 24.05Q275.87 25.45 275.87 27.32L275.87 27.32L275.87 27.54Q275.87 30.71 277.36 32.31Q278.86 33.91 281.70 33.91L281.70 33.91Q282.78 33.91 283.99 33.62Q285.19 33.34 286.27 32.65L286.27 32.65Q286.88 32.29 287.37 32.33Q287.86 32.36 288.16 32.65Q288.47 32.94 288.54 33.37Q288.61 33.80 288.40 34.25Q288.18 34.70 287.64 35.06L287.64 35.06Q286.42 35.89 284.80 36.31Q283.18 36.72 281.66 36.72ZM298.91 36.72L298.91 36.72Q297.32 36.72 295.65 36.36Q293.98 36 292.57 35.14L292.57 35.14Q292.10 34.81 291.92 34.42Q291.74 34.02 291.80 33.61Q291.85 33.19 292.12 32.89Q292.39 32.58 292.81 32.51Q293.22 32.44 293.69 32.69L293.69 32.69Q295.09 33.48 296.39 33.79Q297.68 34.09 298.94 34.09L298.94 34.09Q300.85 34.09 301.82 33.41Q302.80 32.72 302.80 31.57L302.80 31.57Q302.80 30.64 302.15 30.11Q301.50 29.59 300.20 29.30L300.20 29.30L296.78 28.62Q294.55 28.15 293.40 26.96Q292.25 25.78 292.25 23.94L292.25 23.94Q292.25 22.28 293.15 21.06Q294.05 19.84 295.67 19.17Q297.29 18.50 299.41 18.50L299.41 18.50Q301.00 18.50 302.40 18.90Q303.80 19.30 304.99 20.09L304.99 20.09Q305.46 20.34 305.60 20.75Q305.75 21.17 305.66 21.56Q305.57 21.96 305.28 22.27Q304.99 22.57 304.58 22.63Q304.16 22.68 303.66 22.43L303.66 22.43Q302.58 21.74 301.52 21.46Q300.46 21.17 299.41 21.17L299.41 21.17Q297.50 21.17 296.55 21.87Q295.60 22.57 295.60 23.76L295.60 23.76Q295.60 24.66 296.17 25.24Q296.75 25.81 297.97 26.06L297.97 26.06L301.39 26.75Q303.73 27.22 304.94 28.33Q306.14 29.45 306.14 31.36L306.14 31.36Q306.14 33.84 304.16 35.28Q302.18 36.72 298.91 36.72Z" transform="translate(0, 0)"></path></g></svg></svg>