<?xml version="1.0" standalone="no"?>
<!DOCTYPE svg PUBLIC "-//W3C//DTD SVG 20010904//EN"
 "http://www.w3.org/TR/2001/REC-SVG-20010904/DTD/svg10.dtd">
<svg version="1.0" xmlns="http://www.w3.org/2000/svg"
 width="512.000000pt" height="512.000000pt" viewBox="0 0 512.000000 512.000000"
 preserveAspectRatio="xMidYMid meet">
<metadata>
Created by potrace 1.14, written by Peter Selinger 2001-2017
</metadata>
<g transform="translate(0.000000,512.000000) scale(0.100000,-0.100000)"
fill="#000000" stroke="none">
<path d="M3457 4887 c-91 -29 -149 -112 -148 -216 0 -70 -32 -178 -51 -172 -7
2 -57 16 -111 32 -54 15 -113 30 -130 33 -18 3 -43 8 -57 11 -14 2 -36 7 -50
10 -91 18 -276 31 -402 29 -152 -3 -235 -13 -404 -49 -769 -164 -1396 -769
-1594 -1539 -30 -115 -33 -131 -51 -256 -14 -96 -19 -363 -9 -460 17 -160 22
-189 51 -308 42 -173 79 -275 159 -437 196 -397 497 -712 890 -929 185 -103
439 -192 640 -225 36 -6 81 -13 100 -17 75 -13 445 -12 545 2 602 84 1109 393
1463 892 29 39 52 74 52 77 0 2 11 21 25 42 35 51 125 232 158 318 56 146 86
259 122 450 13 72 20 180 19 320 0 135 -10 311 -19 325 -2 3 -6 24 -9 46 -22
142 -80 336 -144 479 -177 394 -447 707 -815 946 -37 24 -65 49 -63 55 2 6 12
51 22 100 11 51 27 98 37 109 69 74 61 204 -17 281 -59 59 -127 76 -209 51z"/>
<path d="M2477 4764 c-1 -1 -40 -4 -87 -7 -110 -8 -207 -22 -325 -48 -105 -22
-305 -83 -345 -104 -14 -8 -54 -26 -90 -41 -382 -162 -763 -495 -997 -869
-173 -278 -272 -553 -327 -915 -14 -94 -16 -501 -3 -560 3 -14 8 -43 11 -65
24 -207 128 -523 238 -725 23 -41 46 -84 52 -95 26 -48 124 -187 191 -270 259
-323 595 -562 995 -708 270 -99 506 -137 815 -131 230 4 360 23 585 86 686
192 1247 714 1503 1399 36 95 90 296 102 374 9 63 14 98 21 130 10 48 13 476
4 526 -5 26 -11 64 -14 85 -4 35 -33 184 -40 209 -2 6 -6 24 -10 40 -20 79
-74 231 -118 330 -177 402 -460 736 -835 987 -48 32 -90 58 -95 58 -4 0 -8
-11 -8 -24 0 -18 13 -32 52 -57 311 -191 602 -506 779 -844 93 -177 194 -462
214 -607 3 -24 8 -50 10 -58 25 -92 38 -392 23 -555 -10 -114 -28 -232 -46
-300 -6 -22 -13 -51 -16 -65 -8 -49 -69 -227 -108 -318 -130 -302 -346 -600
-584 -803 -28 -24 -64 -55 -80 -69 -16 -13 -85 -62 -153 -107 -248 -167 -538
-284 -838 -339 -13 -2 -35 -6 -50 -9 -113 -20 -457 -27 -583 -12 -108 14 -234
37 -310 57 -251 66 -559 210 -735 342 -450 339 -733 754 -865 1269 -25 97 -26
102 -36 166 -3 26 -8 57 -10 68 -13 65 -19 181 -18 335 2 198 13 291 59 502 9
42 67 224 88 278 40 102 156 324 214 412 211 315 492 571 818 745 171 90 416
179 575 209 14 2 34 6 46 9 12 3 39 7 60 10 21 3 49 8 60 10 104 22 494 22
599 0 11 -2 37 -7 58 -10 62 -8 207 -42 275 -63 l62 -20 0 24 c0 29 -11 34
-169 74 -161 40 -325 61 -506 64 -58 1 -107 1 -108 0z"/>
</g>
</svg>
